<svg width="91" height="90" viewBox="0 0 91 90" fill="none" xmlns="http://www.w3.org/2000/svg">
<path d="M8.88578 9.08416C7 11.0515 7 11.3081 7 45.6939V80.4218L8.9715 82.3036C10.943 84.0999 11.6287 84.0999 25.4292 83.9288C36.0582 83.7578 39.9155 83.4156 40.2583 82.5602C40.5155 81.7904 37.4297 81.5338 26.8007 81.5338C14.1145 81.5338 12.8288 81.3627 11.2859 79.8231C9.65724 78.1979 9.57152 77.0003 9.57152 45.6084C9.57152 14.2164 9.65724 13.0189 11.2859 11.3937C12.9145 9.76846 14.1145 9.68292 45.5728 9.68292C77.0311 9.68292 78.2311 9.76846 79.8597 11.3937C81.4884 13.0189 81.5741 14.2164 81.5741 45.6084C81.5741 77.0003 81.4884 78.1979 79.8597 79.8231C78.3168 81.3627 77.0311 81.5338 64.3449 81.5338C53.7159 81.5338 50.6301 81.7904 50.8873 82.5602C51.2301 83.4156 55.0874 83.7578 65.7164 83.9288C79.5169 84.0999 80.2026 84.0999 82.1741 82.3036L84.1456 80.4218V45.6084V10.7949L82.1741 8.99863C80.2026 7.11682 79.9455 7.11682 45.4871 7.11682H10.6858L8.88578 9.08416Z" fill="black"/>
<path d="M26.2854 22.6845C26.0282 23.2832 25.9425 33.9753 26.0282 46.4637L26.2854 69.1309L32.1142 69.3876L37.8572 69.6442V62.8012V56.0438L45.9147 55.7017C53.2864 55.4451 54.315 55.1885 57.6579 52.879C67.5154 45.8649 67.4297 31.4948 57.4008 24.5663C53.8864 22.0857 53.6292 22.0857 40.2573 21.8291C29.5426 21.5725 26.6283 21.7436 26.2854 22.6845ZM55.2579 26.7047C64.601 32.4357 63.7439 47.148 53.8007 51.6814C51.2291 52.7934 48.229 53.3066 42.8288 53.3066H35.2857V60.1496V66.9925H32.2856H29.2855V45.5228V24.0531L40.6859 24.3952C50.7148 24.6518 52.4292 24.9084 55.2579 26.7047Z" fill="black"/>
<path d="M35.6298 31.3237C35.3726 32.008 35.2869 35.7716 35.4583 39.7063L35.7155 46.8914L42.0586 47.148C51.6589 47.4901 55.8591 45.0951 55.8591 38.9365C55.8591 35.2584 53.8018 32.2646 50.5446 31.1526C46.6016 29.784 36.2298 29.9551 35.6298 31.3237ZM51.5732 35.3439C53.6304 37.3968 53.7161 39.4497 51.9161 42.0158C50.8017 43.641 49.8588 43.8976 44.2015 43.8976H37.8584V38.7654V33.6332H43.8586C48.7445 33.6332 50.2017 33.9753 51.5732 35.3439Z" fill="black"/>
<path d="M44.1157 82.5603C44.2871 83.159 44.9729 83.6722 45.5729 83.6722C46.1729 83.6722 46.8587 83.159 47.1158 82.5603C47.2873 81.9615 46.6872 81.5338 45.5729 81.5338C44.4586 81.5338 43.8586 81.9615 44.1157 82.5603Z" fill="black"/>
</svg>
